<?xml version="1.0" encoding="UTF-8"?>
<svg id="Layer_2" data-name="Layer 2" xmlns="http://www.w3.org/2000/svg" viewBox="0 0 141.43 141.43">
  <defs>
    <style>
      .cls-1 {
        fill:#e4f222;
        stroke-width: 0px;
      }
    </style>
  </defs>
  <g id="Layer_1-2" data-name="Layer 1">
    <path class="cls-1" d="m122.56,0H18.87C8.45,0,0,8.45,0,18.87v103.69c0,10.42,8.45,18.87,18.87,18.87h103.69c10.42,0,18.87-8.45,18.87-18.87V18.87c0-10.42-8.45-18.87-18.87-18.87Zm-53.89,91.12c-1.91,2.68-4.58,4.73-8.03,6.16-3.45,1.43-7.41,2.15-11.88,2.15-6.75,0-12.12-1.65-16.12-4.95-4-3.3-6-7.63-6-12.98h12.76c.07,2.35.95,4.22,2.64,5.61,1.69,1.39,4.03,2.09,7.04,2.09,3.23,0,5.67-.59,7.31-1.76,1.65-1.17,2.48-2.75,2.48-4.73,0-1.32-.44-2.49-1.32-3.52-.88-1.03-2.53-1.8-4.95-2.31l-9.79-2.31c-4.91-1.1-8.56-2.88-10.95-5.33-2.38-2.46-3.57-5.85-3.57-10.17,0-3.52.93-6.56,2.8-9.13,1.87-2.57,4.42-4.53,7.64-5.89,3.23-1.36,6.93-2.04,11.11-2.04s7.59.73,10.67,2.2c3.08,1.47,5.48,3.52,7.21,6.16,1.72,2.64,2.62,5.72,2.7,9.24h-12.76c0-2.35-.73-4.2-2.2-5.55-1.47-1.36-3.52-2.04-6.16-2.04s-4.69.59-6.16,1.76c-1.47,1.17-2.2,2.75-2.2,4.73,0,3.01,2.35,5.06,7.04,6.16l9.79,2.31c4.55,1.03,7.98,2.68,10.29,4.95,2.31,2.27,3.46,5.5,3.46,9.68,0,3.67-.95,6.84-2.86,9.52Zm46.11,7.79h-36.64v-9.9h36.64v9.9Z"/>
  </g>
</svg>